<mxfile host="app.diagrams.net" modified="2022-09-18T15:56:29.253Z" agent="5.0 (Windows NT 10.0; Win64; x64) AppleWebKit/537.36 (KHTML, like Gecko) Chrome/105.0.0.0 Safari/537.36" etag="ANP478vcNMAukJOrg-dW" version="20.3.2" type="github">
  <diagram id="C5RBs43oDa-KdzZeNtuy" name="Page-1">
    <mxGraphModel dx="1038" dy="547" grid="1" gridSize="10" guides="1" tooltips="1" connect="1" arrows="1" fold="1" page="1" pageScale="1" pageWidth="827" pageHeight="1169" math="0" shadow="0">
      <root>
        <mxCell id="WIyWlLk6GJQsqaUBKTNV-0" />
        <mxCell id="WIyWlLk6GJQsqaUBKTNV-1" parent="WIyWlLk6GJQsqaUBKTNV-0" />
        <mxCell id="C8EmR-1X_eMLz2JugU54-7" value="" style="edgeStyle=orthogonalEdgeStyle;rounded=0;orthogonalLoop=1;jettySize=auto;html=1;" edge="1" parent="WIyWlLk6GJQsqaUBKTNV-1" source="C8EmR-1X_eMLz2JugU54-0" target="C8EmR-1X_eMLz2JugU54-2">
          <mxGeometry relative="1" as="geometry" />
        </mxCell>
        <mxCell id="C8EmR-1X_eMLz2JugU54-0" value="进入在线咨询页面" style="rounded=1;whiteSpace=wrap;html=1;absoluteArcSize=1;arcSize=14;strokeWidth=2;" vertex="1" parent="WIyWlLk6GJQsqaUBKTNV-1">
          <mxGeometry x="10" y="80" width="100" height="40" as="geometry" />
        </mxCell>
        <mxCell id="C8EmR-1X_eMLz2JugU54-9" value="" style="edgeStyle=orthogonalEdgeStyle;rounded=0;orthogonalLoop=1;jettySize=auto;html=1;" edge="1" parent="WIyWlLk6GJQsqaUBKTNV-1" source="C8EmR-1X_eMLz2JugU54-1" target="C8EmR-1X_eMLz2JugU54-3">
          <mxGeometry relative="1" as="geometry" />
        </mxCell>
        <mxCell id="C8EmR-1X_eMLz2JugU54-1" value="下发欢迎语" style="rounded=1;whiteSpace=wrap;html=1;absoluteArcSize=1;arcSize=14;strokeWidth=2;" vertex="1" parent="WIyWlLk6GJQsqaUBKTNV-1">
          <mxGeometry x="310" y="80" width="70" height="40" as="geometry" />
        </mxCell>
        <mxCell id="C8EmR-1X_eMLz2JugU54-8" value="" style="edgeStyle=orthogonalEdgeStyle;rounded=0;orthogonalLoop=1;jettySize=auto;html=1;" edge="1" parent="WIyWlLk6GJQsqaUBKTNV-1" source="C8EmR-1X_eMLz2JugU54-2" target="C8EmR-1X_eMLz2JugU54-1">
          <mxGeometry relative="1" as="geometry" />
        </mxCell>
        <mxCell id="C8EmR-1X_eMLz2JugU54-44" style="edgeStyle=orthogonalEdgeStyle;rounded=0;orthogonalLoop=1;jettySize=auto;html=1;exitX=0.5;exitY=0;exitDx=0;exitDy=0;exitPerimeter=0;entryX=0.5;entryY=0;entryDx=0;entryDy=0;entryPerimeter=0;" edge="1" parent="WIyWlLk6GJQsqaUBKTNV-1" source="C8EmR-1X_eMLz2JugU54-2" target="C8EmR-1X_eMLz2JugU54-3">
          <mxGeometry relative="1" as="geometry" />
        </mxCell>
        <mxCell id="C8EmR-1X_eMLz2JugU54-2" value="&amp;nbsp; &amp;nbsp;30分钟内是否下发过欢迎语" style="strokeWidth=2;html=1;shape=mxgraph.flowchart.decision;whiteSpace=wrap;" vertex="1" parent="WIyWlLk6GJQsqaUBKTNV-1">
          <mxGeometry x="140" y="55" width="130" height="90" as="geometry" />
        </mxCell>
        <mxCell id="C8EmR-1X_eMLz2JugU54-10" value="" style="edgeStyle=orthogonalEdgeStyle;rounded=0;orthogonalLoop=1;jettySize=auto;html=1;" edge="1" parent="WIyWlLk6GJQsqaUBKTNV-1" source="C8EmR-1X_eMLz2JugU54-3" target="C8EmR-1X_eMLz2JugU54-4">
          <mxGeometry relative="1" as="geometry" />
        </mxCell>
        <mxCell id="C8EmR-1X_eMLz2JugU54-45" style="edgeStyle=orthogonalEdgeStyle;rounded=0;orthogonalLoop=1;jettySize=auto;html=1;exitX=0.5;exitY=1;exitDx=0;exitDy=0;exitPerimeter=0;entryX=0;entryY=1;entryDx=0;entryDy=0;" edge="1" parent="WIyWlLk6GJQsqaUBKTNV-1" source="C8EmR-1X_eMLz2JugU54-3" target="C8EmR-1X_eMLz2JugU54-5">
          <mxGeometry relative="1" as="geometry" />
        </mxCell>
        <mxCell id="C8EmR-1X_eMLz2JugU54-3" value="&amp;nbsp; &amp;nbsp; 是否上线对应系统语&lt;br&gt;言的全量公告" style="strokeWidth=2;html=1;shape=mxgraph.flowchart.decision;whiteSpace=wrap;" vertex="1" parent="WIyWlLk6GJQsqaUBKTNV-1">
          <mxGeometry x="410" y="55" width="140" height="90" as="geometry" />
        </mxCell>
        <mxCell id="C8EmR-1X_eMLz2JugU54-11" value="" style="edgeStyle=orthogonalEdgeStyle;rounded=0;orthogonalLoop=1;jettySize=auto;html=1;" edge="1" parent="WIyWlLk6GJQsqaUBKTNV-1" source="C8EmR-1X_eMLz2JugU54-4" target="C8EmR-1X_eMLz2JugU54-5">
          <mxGeometry relative="1" as="geometry" />
        </mxCell>
        <mxCell id="C8EmR-1X_eMLz2JugU54-4" value="下发对应系统语言的全量公告" style="rounded=1;whiteSpace=wrap;html=1;absoluteArcSize=1;arcSize=14;strokeWidth=2;" vertex="1" parent="WIyWlLk6GJQsqaUBKTNV-1">
          <mxGeometry x="590" y="80" width="100" height="40" as="geometry" />
        </mxCell>
        <mxCell id="C8EmR-1X_eMLz2JugU54-12" value="" style="edgeStyle=orthogonalEdgeStyle;rounded=0;orthogonalLoop=1;jettySize=auto;html=1;" edge="1" parent="WIyWlLk6GJQsqaUBKTNV-1" source="C8EmR-1X_eMLz2JugU54-5" target="C8EmR-1X_eMLz2JugU54-6">
          <mxGeometry relative="1" as="geometry" />
        </mxCell>
        <mxCell id="C8EmR-1X_eMLz2JugU54-5" value="用户发送问句" style="rounded=1;whiteSpace=wrap;html=1;absoluteArcSize=1;arcSize=14;strokeWidth=2;" vertex="1" parent="WIyWlLk6GJQsqaUBKTNV-1">
          <mxGeometry x="730" y="80" width="70" height="40" as="geometry" />
        </mxCell>
        <mxCell id="C8EmR-1X_eMLz2JugU54-53" value="" style="edgeStyle=orthogonalEdgeStyle;rounded=0;orthogonalLoop=1;jettySize=auto;html=1;" edge="1" parent="WIyWlLk6GJQsqaUBKTNV-1" source="C8EmR-1X_eMLz2JugU54-6" target="C8EmR-1X_eMLz2JugU54-13">
          <mxGeometry relative="1" as="geometry" />
        </mxCell>
        <mxCell id="C8EmR-1X_eMLz2JugU54-6" value="机器人回答" style="rounded=1;whiteSpace=wrap;html=1;absoluteArcSize=1;arcSize=14;strokeWidth=2;" vertex="1" parent="WIyWlLk6GJQsqaUBKTNV-1">
          <mxGeometry x="730" y="215" width="70" height="40" as="geometry" />
        </mxCell>
        <mxCell id="C8EmR-1X_eMLz2JugU54-52" value="" style="edgeStyle=orthogonalEdgeStyle;rounded=0;orthogonalLoop=1;jettySize=auto;html=1;" edge="1" parent="WIyWlLk6GJQsqaUBKTNV-1" source="C8EmR-1X_eMLz2JugU54-13" target="C8EmR-1X_eMLz2JugU54-14">
          <mxGeometry relative="1" as="geometry" />
        </mxCell>
        <mxCell id="C8EmR-1X_eMLz2JugU54-13" value="用户输入“转人工”" style="rounded=1;whiteSpace=wrap;html=1;absoluteArcSize=1;arcSize=14;strokeWidth=2;" vertex="1" parent="WIyWlLk6GJQsqaUBKTNV-1">
          <mxGeometry x="620" y="215" width="70" height="40" as="geometry" />
        </mxCell>
        <mxCell id="C8EmR-1X_eMLz2JugU54-51" value="" style="edgeStyle=orthogonalEdgeStyle;rounded=0;orthogonalLoop=1;jettySize=auto;html=1;" edge="1" parent="WIyWlLk6GJQsqaUBKTNV-1" source="C8EmR-1X_eMLz2JugU54-14" target="C8EmR-1X_eMLz2JugU54-16">
          <mxGeometry relative="1" as="geometry" />
        </mxCell>
        <mxCell id="C8EmR-1X_eMLz2JugU54-14" value="选择技能" style="rounded=1;whiteSpace=wrap;html=1;absoluteArcSize=1;arcSize=14;strokeWidth=2;" vertex="1" parent="WIyWlLk6GJQsqaUBKTNV-1">
          <mxGeometry x="510" y="215" width="70" height="40" as="geometry" />
        </mxCell>
        <mxCell id="C8EmR-1X_eMLz2JugU54-25" value="" style="edgeStyle=orthogonalEdgeStyle;rounded=0;orthogonalLoop=1;jettySize=auto;html=1;" edge="1" parent="WIyWlLk6GJQsqaUBKTNV-1" source="C8EmR-1X_eMLz2JugU54-16" target="C8EmR-1X_eMLz2JugU54-24">
          <mxGeometry relative="1" as="geometry" />
        </mxCell>
        <mxCell id="C8EmR-1X_eMLz2JugU54-56" value="" style="edgeStyle=orthogonalEdgeStyle;rounded=0;orthogonalLoop=1;jettySize=auto;html=1;" edge="1" parent="WIyWlLk6GJQsqaUBKTNV-1" source="C8EmR-1X_eMLz2JugU54-16" target="C8EmR-1X_eMLz2JugU54-55">
          <mxGeometry relative="1" as="geometry" />
        </mxCell>
        <mxCell id="C8EmR-1X_eMLz2JugU54-16" value="服务时间？" style="strokeWidth=2;html=1;shape=mxgraph.flowchart.decision;whiteSpace=wrap;" vertex="1" parent="WIyWlLk6GJQsqaUBKTNV-1">
          <mxGeometry x="380" y="205" width="90" height="60" as="geometry" />
        </mxCell>
        <mxCell id="C8EmR-1X_eMLz2JugU54-27" value="" style="edgeStyle=orthogonalEdgeStyle;rounded=0;orthogonalLoop=1;jettySize=auto;html=1;" edge="1" parent="WIyWlLk6GJQsqaUBKTNV-1" source="C8EmR-1X_eMLz2JugU54-24" target="C8EmR-1X_eMLz2JugU54-26">
          <mxGeometry relative="1" as="geometry" />
        </mxCell>
        <mxCell id="C8EmR-1X_eMLz2JugU54-59" value="" style="edgeStyle=orthogonalEdgeStyle;rounded=0;orthogonalLoop=1;jettySize=auto;html=1;" edge="1" parent="WIyWlLk6GJQsqaUBKTNV-1" source="C8EmR-1X_eMLz2JugU54-24" target="C8EmR-1X_eMLz2JugU54-28">
          <mxGeometry relative="1" as="geometry" />
        </mxCell>
        <mxCell id="C8EmR-1X_eMLz2JugU54-24" value="有客服在线？" style="strokeWidth=2;html=1;shape=mxgraph.flowchart.decision;whiteSpace=wrap;" vertex="1" parent="WIyWlLk6GJQsqaUBKTNV-1">
          <mxGeometry x="250" y="205" width="90" height="60" as="geometry" />
        </mxCell>
        <mxCell id="C8EmR-1X_eMLz2JugU54-26" value="下发留言提示语" style="rounded=1;whiteSpace=wrap;html=1;absoluteArcSize=1;arcSize=14;strokeWidth=2;" vertex="1" parent="WIyWlLk6GJQsqaUBKTNV-1">
          <mxGeometry x="260" y="300" width="70" height="40" as="geometry" />
        </mxCell>
        <mxCell id="C8EmR-1X_eMLz2JugU54-31" value="" style="edgeStyle=orthogonalEdgeStyle;rounded=0;orthogonalLoop=1;jettySize=auto;html=1;" edge="1" parent="WIyWlLk6GJQsqaUBKTNV-1" source="C8EmR-1X_eMLz2JugU54-28" target="C8EmR-1X_eMLz2JugU54-30">
          <mxGeometry relative="1" as="geometry" />
        </mxCell>
        <mxCell id="C8EmR-1X_eMLz2JugU54-36" value="" style="edgeStyle=orthogonalEdgeStyle;rounded=0;orthogonalLoop=1;jettySize=auto;html=1;" edge="1" parent="WIyWlLk6GJQsqaUBKTNV-1" source="C8EmR-1X_eMLz2JugU54-28" target="C8EmR-1X_eMLz2JugU54-29">
          <mxGeometry relative="1" as="geometry" />
        </mxCell>
        <mxCell id="C8EmR-1X_eMLz2JugU54-28" value="需要排队？" style="strokeWidth=2;html=1;shape=mxgraph.flowchart.decision;whiteSpace=wrap;" vertex="1" parent="WIyWlLk6GJQsqaUBKTNV-1">
          <mxGeometry x="130" y="205" width="90" height="60" as="geometry" />
        </mxCell>
        <mxCell id="C8EmR-1X_eMLz2JugU54-37" value="" style="edgeStyle=orthogonalEdgeStyle;rounded=0;orthogonalLoop=1;jettySize=auto;html=1;" edge="1" parent="WIyWlLk6GJQsqaUBKTNV-1" source="C8EmR-1X_eMLz2JugU54-29" target="C8EmR-1X_eMLz2JugU54-32">
          <mxGeometry relative="1" as="geometry" />
        </mxCell>
        <mxCell id="C8EmR-1X_eMLz2JugU54-29" value="下发接入中提示语" style="rounded=1;whiteSpace=wrap;html=1;absoluteArcSize=1;arcSize=14;strokeWidth=2;" vertex="1" parent="WIyWlLk6GJQsqaUBKTNV-1">
          <mxGeometry x="25" y="212.5" width="70" height="45" as="geometry" />
        </mxCell>
        <mxCell id="C8EmR-1X_eMLz2JugU54-30" value="下发排队人数提示语" style="rounded=1;whiteSpace=wrap;html=1;absoluteArcSize=1;arcSize=14;strokeWidth=2;" vertex="1" parent="WIyWlLk6GJQsqaUBKTNV-1">
          <mxGeometry x="140" y="300" width="70" height="40" as="geometry" />
        </mxCell>
        <mxCell id="C8EmR-1X_eMLz2JugU54-65" style="edgeStyle=orthogonalEdgeStyle;rounded=0;orthogonalLoop=1;jettySize=auto;html=1;exitX=0.5;exitY=1;exitDx=0;exitDy=0;entryX=0.5;entryY=0;entryDx=0;entryDy=0;" edge="1" parent="WIyWlLk6GJQsqaUBKTNV-1" source="C8EmR-1X_eMLz2JugU54-32" target="C8EmR-1X_eMLz2JugU54-33">
          <mxGeometry relative="1" as="geometry" />
        </mxCell>
        <mxCell id="C8EmR-1X_eMLz2JugU54-32" value="下发接入成功提示语，下发客服首响语" style="rounded=1;whiteSpace=wrap;html=1;absoluteArcSize=1;arcSize=14;strokeWidth=2;" vertex="1" parent="WIyWlLk6GJQsqaUBKTNV-1">
          <mxGeometry x="25" y="295" width="70" height="65" as="geometry" />
        </mxCell>
        <mxCell id="C8EmR-1X_eMLz2JugU54-66" style="edgeStyle=orthogonalEdgeStyle;rounded=0;orthogonalLoop=1;jettySize=auto;html=1;exitX=0.5;exitY=1;exitDx=0;exitDy=0;entryX=0.5;entryY=0;entryDx=0;entryDy=0;" edge="1" parent="WIyWlLk6GJQsqaUBKTNV-1" source="C8EmR-1X_eMLz2JugU54-33" target="C8EmR-1X_eMLz2JugU54-34">
          <mxGeometry relative="1" as="geometry" />
        </mxCell>
        <mxCell id="C8EmR-1X_eMLz2JugU54-33" value="用户咨询" style="rounded=1;whiteSpace=wrap;html=1;absoluteArcSize=1;arcSize=14;strokeWidth=2;" vertex="1" parent="WIyWlLk6GJQsqaUBKTNV-1">
          <mxGeometry x="25" y="390" width="70" height="30" as="geometry" />
        </mxCell>
        <mxCell id="C8EmR-1X_eMLz2JugU54-40" value="" style="edgeStyle=orthogonalEdgeStyle;rounded=0;orthogonalLoop=1;jettySize=auto;html=1;" edge="1" parent="WIyWlLk6GJQsqaUBKTNV-1" source="C8EmR-1X_eMLz2JugU54-34" target="C8EmR-1X_eMLz2JugU54-35">
          <mxGeometry relative="1" as="geometry" />
        </mxCell>
        <mxCell id="C8EmR-1X_eMLz2JugU54-34" value="结束会话" style="rounded=1;whiteSpace=wrap;html=1;absoluteArcSize=1;arcSize=14;strokeWidth=2;" vertex="1" parent="WIyWlLk6GJQsqaUBKTNV-1">
          <mxGeometry x="25" y="460" width="70" height="30" as="geometry" />
        </mxCell>
        <mxCell id="C8EmR-1X_eMLz2JugU54-35" value="下发评价卡片" style="rounded=1;whiteSpace=wrap;html=1;absoluteArcSize=1;arcSize=14;strokeWidth=2;" vertex="1" parent="WIyWlLk6GJQsqaUBKTNV-1">
          <mxGeometry x="25" y="520" width="70" height="30" as="geometry" />
        </mxCell>
        <mxCell id="C8EmR-1X_eMLz2JugU54-47" value="否" style="text;html=1;resizable=0;autosize=1;align=center;verticalAlign=middle;points=[];fillColor=none;strokeColor=none;rounded=0;" vertex="1" parent="WIyWlLk6GJQsqaUBKTNV-1">
          <mxGeometry x="270" y="65" width="40" height="30" as="geometry" />
        </mxCell>
        <mxCell id="C8EmR-1X_eMLz2JugU54-48" value="是" style="text;html=1;resizable=0;autosize=1;align=center;verticalAlign=middle;points=[];fillColor=none;strokeColor=none;rounded=0;" vertex="1" parent="WIyWlLk6GJQsqaUBKTNV-1">
          <mxGeometry x="210" y="35" width="40" height="30" as="geometry" />
        </mxCell>
        <mxCell id="C8EmR-1X_eMLz2JugU54-49" value="是" style="text;html=1;resizable=0;autosize=1;align=center;verticalAlign=middle;points=[];fillColor=none;strokeColor=none;rounded=0;" vertex="1" parent="WIyWlLk6GJQsqaUBKTNV-1">
          <mxGeometry x="540" y="65" width="40" height="30" as="geometry" />
        </mxCell>
        <mxCell id="C8EmR-1X_eMLz2JugU54-50" value="否" style="text;html=1;resizable=0;autosize=1;align=center;verticalAlign=middle;points=[];fillColor=none;strokeColor=none;rounded=0;" vertex="1" parent="WIyWlLk6GJQsqaUBKTNV-1">
          <mxGeometry x="550" y="140" width="40" height="30" as="geometry" />
        </mxCell>
        <mxCell id="C8EmR-1X_eMLz2JugU54-54" value="否" style="text;html=1;resizable=0;autosize=1;align=center;verticalAlign=middle;points=[];fillColor=none;strokeColor=none;rounded=0;" vertex="1" parent="WIyWlLk6GJQsqaUBKTNV-1">
          <mxGeometry x="430" y="265" width="40" height="30" as="geometry" />
        </mxCell>
        <mxCell id="C8EmR-1X_eMLz2JugU54-57" style="edgeStyle=orthogonalEdgeStyle;rounded=0;orthogonalLoop=1;jettySize=auto;html=1;exitX=1;exitY=0.5;exitDx=0;exitDy=0;entryX=1;entryY=0.75;entryDx=0;entryDy=0;" edge="1" parent="WIyWlLk6GJQsqaUBKTNV-1" source="C8EmR-1X_eMLz2JugU54-55" target="C8EmR-1X_eMLz2JugU54-5">
          <mxGeometry relative="1" as="geometry" />
        </mxCell>
        <mxCell id="C8EmR-1X_eMLz2JugU54-55" value="下发非服务时间提示" style="rounded=1;whiteSpace=wrap;html=1;absoluteArcSize=1;arcSize=14;strokeWidth=2;" vertex="1" parent="WIyWlLk6GJQsqaUBKTNV-1">
          <mxGeometry x="390" y="300" width="70" height="40" as="geometry" />
        </mxCell>
        <mxCell id="C8EmR-1X_eMLz2JugU54-58" value="是" style="text;html=1;resizable=0;autosize=1;align=center;verticalAlign=middle;points=[];fillColor=none;strokeColor=none;rounded=0;" vertex="1" parent="WIyWlLk6GJQsqaUBKTNV-1">
          <mxGeometry x="350" y="205" width="40" height="30" as="geometry" />
        </mxCell>
        <mxCell id="C8EmR-1X_eMLz2JugU54-60" value="否" style="text;html=1;resizable=0;autosize=1;align=center;verticalAlign=middle;points=[];fillColor=none;strokeColor=none;rounded=0;" vertex="1" parent="WIyWlLk6GJQsqaUBKTNV-1">
          <mxGeometry x="100" y="200" width="40" height="30" as="geometry" />
        </mxCell>
        <mxCell id="C8EmR-1X_eMLz2JugU54-61" value="是" style="text;html=1;resizable=0;autosize=1;align=center;verticalAlign=middle;points=[];fillColor=none;strokeColor=none;rounded=0;" vertex="1" parent="WIyWlLk6GJQsqaUBKTNV-1">
          <mxGeometry x="220" y="205" width="40" height="30" as="geometry" />
        </mxCell>
        <mxCell id="C8EmR-1X_eMLz2JugU54-62" value="否" style="text;html=1;resizable=0;autosize=1;align=center;verticalAlign=middle;points=[];fillColor=none;strokeColor=none;rounded=0;" vertex="1" parent="WIyWlLk6GJQsqaUBKTNV-1">
          <mxGeometry x="300" y="265" width="40" height="30" as="geometry" />
        </mxCell>
        <mxCell id="C8EmR-1X_eMLz2JugU54-63" value="否" style="text;html=1;resizable=0;autosize=1;align=center;verticalAlign=middle;points=[];fillColor=none;strokeColor=none;rounded=0;" vertex="1" parent="WIyWlLk6GJQsqaUBKTNV-1">
          <mxGeometry x="180" y="270" width="40" height="30" as="geometry" />
        </mxCell>
      </root>
    </mxGraphModel>
  </diagram>
</mxfile>
